<svg width="42" height="38" viewBox="0 0 42 38" fill="none" xmlns="http://www.w3.org/2000/svg">
<mask id="mask0_1978_2874" style="mask-type:luminance" maskUnits="userSpaceOnUse" x="0" y="0" width="42" height="38">
<path d="M41.77 0.120117H0.199997V37.6601H41.77V0.120117Z" fill="white"/>
</mask>
<g mask="url(#mask0_1978_2874)">
<path d="M20.35 34.9701C21.47 35.6901 22.61 36.3701 23.98 36.4701C24.76 36.5301 25.52 36.2201 26.02 35.6201C27.01 34.5301 27 33.3701 25.93 32.3501C25.44 31.8801 24.89 31.4701 24.38 31.0101C23.25 30.0001 22.12 28.9901 21 27.9701C20.73 27.7801 20.68 27.4001 20.87 27.1401C20.88 27.1201 20.9 27.1001 20.91 27.0901C21.14 26.8501 21.53 26.8501 21.76 27.0901C21.76 27.0901 21.78 27.1101 21.79 27.1201C23.34 28.4901 24.9 29.8601 26.45 31.2301C26.96 31.6801 27.47 32.1301 28.02 32.5401C28.61 33.0001 29.3 33.3101 30.04 33.4501C30.82 33.6301 31.64 33.4001 32.21 32.8401C32.66 32.4301 33.01 31.9301 33.23 31.3701C33.57 30.5901 33.33 29.6701 32.65 29.1601C31.03 27.8401 29.41 26.5201 27.79 25.1901C27.09 24.6201 26.39 24.0401 25.69 23.4701C25.47 23.3001 25.39 23.0001 25.52 22.7501C25.63 22.5001 25.9 22.3701 26.17 22.4301C26.3 22.4701 26.42 22.5401 26.52 22.6301C28.59 24.3201 30.67 26.0101 32.74 27.7101C33.42 28.3001 34.21 28.7601 35.06 29.0401C35.26 29.1001 35.46 29.1401 35.66 29.1701C36.47 29.3001 37.28 28.9301 37.71 28.2401C38.56 27.1901 38.5 25.6701 37.56 24.6901C37.32 24.4301 37.06 24.1901 36.79 23.9701C34.63 22.1401 32.48 20.3201 30.32 18.5001C30.19 18.3901 30.1 18.2501 30.04 18.1001C29.97 17.8601 30.08 17.6001 30.3 17.4801C30.52 17.3501 30.8 17.3801 30.99 17.5501C31.64 18.0901 32.28 18.6401 32.93 19.1801L36.29 22.0201C37.25 22.9701 38.8 22.9601 39.75 22.0001C39.89 21.8601 40.02 21.6901 40.12 21.5201C40.7 20.7701 40.74 19.7301 40.21 18.9401C39.87 18.3901 39.43 17.9101 38.91 17.5201C36.82 15.8301 34.74 14.1401 32.65 12.4701C32.05 12.0301 31.39 11.6601 30.7 11.3901C29.72 10.9401 28.66 10.7001 27.58 10.6701C26.38 10.6501 25.2 11.0301 24.24 11.7601C22.88 12.8001 21.42 13.7001 19.88 14.4601C18.97 14.9201 17.99 15.2301 16.99 15.4001C16.45 15.4901 15.9 15.4701 15.36 15.3401C14.62 15.1701 13.98 14.7101 13.57 14.0701C13.29 13.6201 13.24 13.0601 13.43 12.5701C13.59 12.1001 13.82 11.6501 14.11 11.2501C14.89 10.2001 15.8 9.26014 16.82 8.44014C18.57 6.93014 20.5 5.62014 22.55 4.54014C23.62 3.98014 24.75 3.54014 25.92 3.23014C25.96 3.22014 26 3.20014 26.09 3.17014C25.64 2.97014 25.24 2.77014 24.83 2.60014C22.92 1.80014 20.87 1.37014 18.8 1.32014C16.33 1.23014 13.87 1.73014 11.62 2.77014C8.84 4.08014 6.65001 6.37014 5.46001 9.20014C4.82001 10.6601 4.43 12.2301 4.31 13.8201C4.31 13.8601 4.31 13.8901 4.31 13.9501C4.57 13.9301 4.82001 13.9301 5.08001 13.9501C5.70001 14.0801 6.27001 14.4101 6.69001 14.8901C6.78001 14.9801 6.86001 15.0701 6.94001 15.1601C7.55001 15.8101 7.70001 16.7701 7.30001 17.5701C7.08001 18.0901 6.73 18.5501 6.29 18.9101C5.42 19.6101 4.56001 20.3101 3.71001 21.0201C3.33001 21.3601 2.79001 21.4501 2.32001 21.2701C2.14001 21.2101 1.97001 21.1201 1.80001 21.0201C1.29001 20.6901 0.86 20.2601 0.54 19.7501C0.11 19.0801 0.0600054 18.2401 0.420005 17.5301C0.730005 16.8401 1.19 16.2301 1.76 15.7401C2.14 15.3901 2.55001 15.0601 2.96001 14.7401C3.05001 14.6801 3.11001 14.5801 3.11001 14.4601C3.18001 12.3401 3.68 10.2501 4.59 8.33014C6.24 4.73014 9.36001 2.03014 13.16 0.930142C15.46 0.220142 17.89 -0.00985879 20.28 0.250141C22.95 0.520141 25.52 1.41014 27.8 2.84014C27.92 2.89014 28.04 2.91014 28.17 2.91014C30.96 2.93014 33.67 3.82014 35.93 5.47014C37.8 6.88014 39.04 8.96014 39.38 11.2801C39.64 12.9101 39.62 14.5701 39.33 16.1901C39.3 16.2901 39.35 16.4001 39.44 16.4501C39.98 16.8501 40.46 17.3201 40.88 17.8501C42.16 19.5201 42.06 21.3101 40.59 22.8201C40.04 23.4101 39.3 23.8001 38.5 23.8901C38.48 23.8901 38.46 23.9001 38.44 23.9101C38.57 24.0901 38.7 24.2601 38.82 24.4401C40.01 26.2401 39.53 28.6701 37.74 29.8701C36.87 30.4301 35.8 30.5601 34.83 30.2201L34.58 30.1501C34.58 30.5101 34.55 30.8601 34.5 31.2201C34.14 32.8601 32.91 34.1601 31.3 34.6201C30.39 34.7801 29.46 34.6501 28.64 34.2401C28.4 34.1401 28.17 34.0201 27.92 33.8901C27.95 34.3701 27.86 34.8601 27.65 35.2901C27.15 36.4701 26.11 37.3301 24.86 37.6001C23.98 37.7401 23.09 37.6301 22.27 37.3001C21.31 36.9401 20.4 36.4601 19.57 35.8601C19.47 35.7701 19.32 35.7601 19.22 35.8601C18.54 36.3701 17.74 36.7201 16.9 36.8501C15.73 37.0401 14.55 36.5301 13.88 35.5501C13.33 34.7501 13.48 33.6601 14.24 33.0501C15.12 32.3301 15.99 31.5901 16.89 30.9001C17.55 30.3601 18.41 30.1301 19.25 30.2701C19.59 30.3201 19.91 30.4801 20.16 30.7101C20.81 31.2801 21.23 32.0701 21.35 32.9301C21.42 33.5101 21.23 34.0801 20.83 34.5001C20.69 34.6501 20.54 34.8101 20.37 34.9801" fill="white"/>
<path d="M11 17.1502C11.43 17.1302 11.87 17.2202 12.25 17.4102C13.36 18.0202 14.07 18.9102 14.09 20.2402C14.09 20.6502 13.99 21.0502 13.82 21.4102C13.54 22.0602 13.11 22.6302 12.57 23.0802C10.76 24.5502 8.93999 26.0202 7.14999 27.5102C6.79999 27.8102 6.35999 28.0002 5.89999 28.0602C5.10999 28.2102 4.28999 28.0402 3.61999 27.6102C2.18999 26.6302 1.82 24.6802 2.8 23.2602C2.96 23.0302 3.14 22.8202 3.36 22.6402C5.1 21.1602 6.83 19.6702 8.58 18.1902C9.25 17.5802 10.11 17.2202 11.01 17.1502" fill="white"/>
<path d="M18.42 26.2201C18.43 26.8501 18.28 27.4701 17.96 28.0201C17.68 28.5301 17.31 28.9801 16.86 29.3401C15.1 30.7201 13.36 32.1101 11.61 33.5101C11.31 33.7501 10.95 33.9101 10.57 33.9601C10.07 34.0501 9.57001 34.0401 9.07001 33.9301C7.86001 33.5901 6.97 32.5601 6.81 31.3101C6.66 30.2601 7.08 29.2101 7.92 28.5501C9.58 27.1501 11.26 25.7701 12.93 24.3801C13.49 23.9001 14.16 23.5801 14.89 23.4401C15.71 23.2701 16.56 23.5001 17.19 24.0401C17.9 24.5501 18.34 25.3501 18.42 26.2201Z" fill="white"/>
</g>
</svg>
