<svg width="35" height="35" viewBox="0 0 35 35" fill="none" xmlns="http://www.w3.org/2000/svg">
<g clip-path="url(#clip0_1685_947)">
<path d="M17.5 35C7.84 35 0 27.16 0 17.5V0H17.5C27.16 0 35 7.84 35 17.5C35 27.16 27.16 35 17.5 35Z" fill="#F65035"/>
<path d="M17.4998 5.68329C11.2278 5.68329 6.13184 10.7793 6.13184 17.0513C6.13184 23.3233 11.2278 28.4193 17.4998 28.4193C23.7718 28.4193 28.8678 23.3233 28.8678 17.0513C28.8678 10.7793 23.7718 5.68329 17.4998 5.68329ZM17.4998 26.6273C12.2218 26.6273 7.92384 22.3293 7.92384 17.0513C7.92384 11.7733 12.2218 7.47529 17.4998 7.47529C22.7778 7.47529 27.0758 11.7733 27.0758 17.0513C27.0758 22.3293 22.7778 26.6273 17.4998 26.6273Z" fill="white"/>
<path d="M29.5397 8.62326L29.4137 8.45526L27.9437 9.49126L28.0697 9.65926C29.5957 11.8293 30.3937 14.3913 30.3937 17.0513C30.3937 19.8233 29.5257 22.4693 27.8877 24.6953L27.7617 24.8633L29.2037 25.9273L29.3297 25.7593C31.2057 23.2253 32.1857 20.2153 32.1857 17.0513C32.1997 14.0133 31.2757 11.1013 29.5397 8.62326Z" fill="white"/>
<path d="M7.1258 24.7373C5.4738 22.4973 4.5918 19.8513 4.5918 17.0513C4.5918 14.4193 5.3758 11.8853 6.8738 9.72931L6.9998 9.56131L5.5298 8.53931L5.4038 8.70731C3.6958 11.1713 2.7998 14.0553 2.7998 17.0513C2.7998 20.2293 3.7938 23.2533 5.6838 25.8013L5.8098 25.9693L7.2518 24.9053L7.1258 24.7373Z" fill="white"/>
<path d="M15.6514 9.46332H19.6134L18.7734 18.5773H16.5054L15.6514 9.46332ZM15.9594 20.7473H19.3194V24.1073H15.9594V20.7473Z" fill="white"/>
</g>
<defs>
<clipPath id="clip0_1685_947">
<rect width="35" height="35" fill="white"/>
</clipPath>
</defs>
</svg>
