<?xml version="1.0" encoding="UTF-8" standalone="no"?>
<!DOCTYPE svg PUBLIC "-//W3C//DTD SVG 1.1//EN" "http://www.w3.org/Graphics/SVG/1.1/DTD/svg11.dtd">
<svg width="100%" height="100%" viewBox="0 0 2409 859" version="1.1" xmlns="http://www.w3.org/2000/svg" xmlns:xlink="http://www.w3.org/1999/xlink" xml:space="preserve" xmlns:serif="http://www.serif.com/" style="fill-rule:evenodd;clip-rule:evenodd;stroke-linejoin:round;stroke-miterlimit:2;">
    <g transform="matrix(4.16667,0,0,4.16667,0,0)">
        <path d="M246.166,127.45L205.547,189.855L245.952,189.855L245.952,204.356L185.452,204.356L185.452,191.471L225.746,129.065L186.832,129.065L186.832,114.564L246.166,114.564L246.166,127.45Z" style="fill:rgb(255,197,47);fill-rule:nonzero;"/>
        <path d="M266.99,159.207L266.99,162.22L290.482,162.22L290.482,159.235C290.482,152.665 286.415,147.617 278.621,147.617C271.04,147.617 266.99,152.665 266.99,159.207ZM306.487,181.678L306.487,182.396C306.487,195.773 296.232,206 278.972,206C261.79,206 251.537,195.28 251.537,181.214L251.537,158.953C251.537,144.972 261.653,134.169 278.621,134.169C295.879,134.169 305.934,144.972 305.934,158.981L305.934,174.673L266.99,174.673L266.99,180.961C266.99,187.588 271.179,192.552 278.972,192.552C286.691,192.552 291.109,188.08 291.109,182.2L291.109,181.678L306.487,181.678Z" style="fill:rgb(255,197,47);fill-rule:nonzero;"/>
        <path d="M350.345,134.169L350.345,149.149L345.733,149.149C336.777,149.149 330.721,154.266 330.721,163.517L330.721,204.356L315.268,204.356L315.268,135.811L329.372,135.811L329.372,143.598C333.061,137.771 339.115,134.169 347.77,134.169L350.345,134.169Z" style="fill:rgb(255,197,47);fill-rule:nonzero;"/>
        <path d="M380.538,147.617C372.882,147.617 368.679,152.665 368.679,159.207L368.679,180.961C368.679,187.504 372.882,192.552 380.538,192.552C388.195,192.552 392.398,187.504 392.398,180.961L392.398,159.207C392.398,152.665 388.195,147.617 380.538,147.617ZM407.851,158.953L407.851,181.214C407.851,195.197 397.73,206 380.538,206C363.347,206 353.225,195.197 353.225,181.214L353.225,158.953C353.225,144.972 363.347,134.169 380.538,134.169C397.73,134.169 407.851,144.972 407.851,158.953Z" style="fill:rgb(255,197,47);fill-rule:nonzero;"/>
        <path d="M16.955,47.336L16.955,62.611L63.666,62.611L63.643,15.846L48.369,15.853L48.379,36.607L25.558,13.787L14.757,24.587L37.506,47.336L16.955,47.336Z" style="fill:rgb(255,197,47);fill-rule:nonzero;"/>
        <path d="M110.657,18.383C98.414,6.545 82.156,0.025 64.875,0.025L64.875,15.3C92.224,15.3 114.476,36.702 114.476,63.009C114.476,89.316 92.224,110.718 64.875,110.718C37.525,110.718 15.274,89.316 15.274,63.009L0,63.009C0,79.882 6.78,95.73 19.093,107.635C31.335,119.473 47.594,125.993 64.875,125.993C82.156,125.993 98.414,119.473 110.657,107.635C122.969,95.73 129.75,79.882 129.75,63.009C129.75,46.137 122.969,30.289 110.657,18.383Z" style="fill:rgb(255,197,47);fill-rule:nonzero;"/>
        <g transform="matrix(0.249906,0,0,0.249906,5.26914,98.4253)">
            <g transform="matrix(506.067,0,0,506.067,687.5,-12.5)">
                <path d="M0.085,-0L0.507,-0L0.507,-0.121L0.219,-0.121L0.219,-0.71L0.085,-0.71L0.085,-0Z" style="fill:rgb(255,197,47);fill-rule:nonzero;"/>
            </g>
            <g transform="matrix(506.067,0,0,506.067,933.448,-12.5)">
                <path d="M0.284,0.013C0.333,0.013 0.375,0.002 0.41,-0.02C0.445,-0.042 0.471,-0.072 0.489,-0.11C0.507,-0.147 0.516,-0.19 0.516,-0.237L0.516,-0.308C0.516,-0.355 0.507,-0.398 0.489,-0.436C0.471,-0.473 0.445,-0.503 0.41,-0.525C0.375,-0.547 0.333,-0.558 0.284,-0.558C0.235,-0.558 0.194,-0.547 0.159,-0.525C0.124,-0.503 0.097,-0.473 0.079,-0.436C0.061,-0.398 0.052,-0.355 0.052,-0.308L0.052,-0.237C0.052,-0.19 0.061,-0.147 0.079,-0.11C0.097,-0.072 0.124,-0.042 0.159,-0.02C0.194,0.002 0.235,0.013 0.284,0.013ZM0.284,-0.1C0.215,-0.1 0.18,-0.149 0.18,-0.248L0.18,-0.297C0.18,-0.396 0.215,-0.445 0.284,-0.445C0.353,-0.445 0.388,-0.396 0.388,-0.297L0.388,-0.248C0.388,-0.149 0.353,-0.1 0.284,-0.1Z" style="fill:rgb(255,197,47);fill-rule:nonzero;"/>
            </g>
            <g transform="matrix(506.067,0,0,506.067,1195.59,-12.5)">
                <path d="M0.278,0.013C0.342,0.013 0.394,-0.004 0.433,-0.038C0.472,-0.071 0.494,-0.116 0.498,-0.172L0.37,-0.172C0.364,-0.147 0.354,-0.129 0.339,-0.117C0.324,-0.104 0.304,-0.098 0.278,-0.098C0.243,-0.098 0.218,-0.111 0.203,-0.138C0.188,-0.165 0.18,-0.2 0.18,-0.243L0.18,-0.302C0.18,-0.345 0.188,-0.38 0.203,-0.407C0.218,-0.434 0.243,-0.447 0.278,-0.447C0.329,-0.447 0.358,-0.424 0.367,-0.377L0.495,-0.377C0.492,-0.432 0.471,-0.476 0.433,-0.509C0.394,-0.542 0.343,-0.558 0.278,-0.558C0.231,-0.558 0.191,-0.547 0.157,-0.526C0.123,-0.504 0.097,-0.475 0.079,-0.438C0.061,-0.401 0.052,-0.359 0.052,-0.313L0.052,-0.232C0.052,-0.186 0.061,-0.145 0.079,-0.108C0.097,-0.071 0.123,-0.041 0.157,-0.02C0.191,0.002 0.231,0.013 0.278,0.013Z" style="fill:rgb(255,197,47);fill-rule:nonzero;"/>
            </g>
            <g transform="matrix(506.067,0,0,506.067,1442.55,-12.5)">
                <path d="M0.274,-0.558C0.235,-0.558 0.2,-0.55 0.169,-0.535C0.138,-0.52 0.113,-0.499 0.095,-0.472C0.076,-0.445 0.066,-0.415 0.064,-0.382L0.192,-0.382C0.195,-0.402 0.203,-0.418 0.216,-0.429C0.229,-0.44 0.249,-0.445 0.274,-0.445C0.331,-0.445 0.36,-0.413 0.36,-0.348L0.36,-0.279C0.33,-0.307 0.29,-0.321 0.239,-0.321C0.199,-0.321 0.164,-0.314 0.135,-0.3C0.106,-0.285 0.083,-0.266 0.068,-0.241C0.053,-0.216 0.045,-0.188 0.045,-0.157C0.045,-0.108 0.061,-0.067 0.094,-0.035C0.127,-0.003 0.172,0.013 0.229,0.013C0.292,0.013 0.339,-0.007 0.372,-0.047L0.372,-0L0.488,-0L0.488,-0.351C0.488,-0.391 0.48,-0.427 0.463,-0.458C0.446,-0.489 0.422,-0.514 0.39,-0.532C0.357,-0.549 0.319,-0.558 0.274,-0.558ZM0.27,-0.085C0.239,-0.085 0.215,-0.092 0.198,-0.105C0.181,-0.118 0.173,-0.136 0.173,-0.157C0.173,-0.178 0.182,-0.196 0.199,-0.209C0.216,-0.222 0.239,-0.228 0.27,-0.228C0.301,-0.228 0.324,-0.222 0.341,-0.209C0.358,-0.196 0.366,-0.178 0.366,-0.157C0.366,-0.136 0.358,-0.118 0.342,-0.105C0.325,-0.092 0.301,-0.085 0.27,-0.085Z" style="fill:rgb(255,197,47);fill-rule:nonzero;"/>
            </g>
            <g transform="matrix(506.067,0,0,506.067,1684.96,-12.5)">
                <rect x="0.076" y="-0.749" width="0.128" height="0.749" style="fill:rgb(255,197,47);fill-rule:nonzero;"/>
            </g>
        </g>
    </g>
</svg>
