<?xml version="1.0" encoding="UTF-8" standalone="no"?>
<svg
   width="3517.1377"
   height="1005.8718"
   viewBox="0 0 3517.1377 1005.8719"
   version="1.1"
   xml:space="preserve"
   style="clip-rule:evenodd;fill-rule:evenodd;stroke-linejoin:round;stroke-miterlimit:2"
   id="svg38"
   sodipodi:docname="logo_big.svg"
   inkscape:version="1.2.2 (b0a8486541, 2022-12-01)"
   xmlns:inkscape="http://www.inkscape.org/namespaces/inkscape"
   xmlns:sodipodi="http://sodipodi.sourceforge.net/DTD/sodipodi-0.dtd"
   xmlns="http://www.w3.org/2000/svg"
   xmlns:svg="http://www.w3.org/2000/svg"><g
   aria-label="Monitoring"
   id="text367"
   style="font-weight:bold;font-size:533.333px;font-family:'DM Sans';-inkscape-font-specification:'DM Sans Bold';fill:#ffc52f;stroke-width:4"><path
     d="M 785.4058,882.13855 V 508.80544 h 81.06662 L 985.40568,745.6053 1102.7389,508.80544 h 81.0667 v 373.33311 h -68.2667 V 624.53871 L 1011.539,828.80525 H 957.67237 L 853.67243,624.53871 v 257.59984 z"
     id="path419" /><path
     d="m 1381.6718,888.53855 q -38.4,0 -69.3333,-17.59999 -30.4,-17.59999 -48.5333,-48.53331 -17.6,-31.46664 -17.6,-72.53329 0,-41.06664 18.1333,-71.99995 18.1334,-31.46665 48.5333,-49.06664 30.9334,-17.59999 69.3333,-17.59999 37.8667,0 68.2667,17.59999 30.9333,17.59999 48.5333,49.06664 18.1333,30.93331 18.1333,71.99995 0,41.06665 -18.1333,72.53329 -17.6,30.93332 -48.5333,48.53331 -30.9334,17.59999 -68.8,17.59999 z m 0,-59.19997 q 26.6667,0 46.4,-19.73332 19.7333,-20.26665 19.7333,-59.7333 0,-39.46664 -19.7333,-59.19996 -19.7333,-20.26665 -45.8667,-20.26665 -27.1999,0 -46.9333,20.26665 -19.2,19.73332 -19.2,59.19996 0,39.46665 19.2,59.7333 19.7334,19.73332 46.4,19.73332 z"
     id="path421" /><path
     d="M 1577.9389,882.13855 V 617.60538 h 60.2666 l 5.3333,44.79997 q 12.2667,-23.46665 35.2,-37.33331 23.4667,-13.86666 54.9333,-13.86666 49.0666,0 76.2666,30.93332 27.2,30.93331 27.2,90.66661 v 149.33324 h -68.2666 V 739.2053 q 0,-34.13331 -13.8667,-52.26663 -13.8666,-18.13332 -43.2,-18.13332 -28.7999,0 -47.4666,20.26665 -18.1333,20.26666 -18.1333,56.5333 v 136.53325 z"
     id="path423" /><path
     d="m 1939.0052,576.53874 q -18.6667,0 -30.9333,-11.2 -11.7333,-11.19999 -11.7333,-28.26665 0,-17.06665 11.7333,-27.73331 12.2666,-11.2 30.9333,-11.2 18.6667,0 30.4,11.2 12.2666,10.66666 12.2666,27.73331 0,17.06666 -12.2666,28.26665 -11.7333,11.2 -30.4,11.2 z m -34.1333,305.59981 V 617.60538 h 68.2666 v 264.53317 z"
     id="path425" /><path
     d="m 2162.4718,882.13855 q -41.5999,0 -66.6666,-20.26665 -25.0666,-20.26666 -25.0666,-71.99996 V 674.67201 h -45.3333 v -57.06663 h 45.3333 l 8,-70.93329 h 60.2666 v 70.93329 h 71.4666 v 57.06663 h -71.4666 v 115.73326 q 0,19.19999 8,26.66665 8.5333,6.93333 28.8,6.93333 h 33.0666 v 58.1333 z"
     id="path427" /><path
     d="m 2389.1379,888.53855 q -38.4,0 -69.3333,-17.59999 -30.4,-17.59999 -48.5333,-48.53331 -17.6,-31.46664 -17.6,-72.53329 0,-41.06664 18.1333,-71.99995 18.1333,-31.46665 48.5333,-49.06664 30.9333,-17.59999 69.3333,-17.59999 37.8666,0 68.2666,17.59999 30.9333,17.59999 48.5333,49.06664 18.1333,30.93331 18.1333,71.99995 0,41.06665 -18.1333,72.53329 -17.6,30.93332 -48.5333,48.53331 -30.9333,17.59999 -68.7999,17.59999 z m 0,-59.19997 q 26.6666,0 46.3999,-19.73332 19.7334,-20.26665 19.7334,-59.7333 0,-39.46664 -19.7334,-59.19996 -19.7333,-20.26665 -45.8666,-20.26665 -27.2,0 -46.9333,20.26665 -19.2,19.73332 -19.2,59.19996 0,39.46665 19.2,59.7333 19.7333,19.73332 46.4,19.73332 z"
     id="path429" /><path
     d="M 2585.4048,882.13855 V 617.60538 h 60.8 l 6.4,49.59997 q 14.4,-25.59999 38.9333,-40.53331 25.0666,-15.46666 58.6666,-15.46666 v 71.99996 h -19.2 q -22.4,0 -40,6.93333 -17.5999,6.93333 -27.7333,23.99998 -9.6,17.06666 -9.6,47.46664 v 120.53326 z"
     id="path431" /><path
     d="m 2833.4046,576.53874 q -18.6666,0 -30.9333,-11.2 -11.7333,-11.19999 -11.7333,-28.26665 0,-17.06665 11.7333,-27.73331 12.2667,-11.2 30.9333,-11.2 18.6667,0 30.4,11.2 12.2667,10.66666 12.2667,27.73331 0,17.06666 -12.2667,28.26665 -11.7333,11.2 -30.4,11.2 z m -34.1333,305.59981 V 617.60538 h 68.2666 v 264.53317 z"
     id="path433" /><path
     d="M 2939.0048,882.13855 V 617.60538 h 60.2666 l 5.3333,44.79997 q 12.2667,-23.46665 35.2,-37.33331 23.4667,-13.86666 54.9333,-13.86666 49.0667,0 76.2666,30.93332 27.2,30.93331 27.2,90.66661 V 882.13855 H 3129.938 V 739.2053 q 0,-34.13331 -13.8667,-52.26663 -13.8666,-18.13332 -43.1999,-18.13332 -28.8,0 -47.4667,20.26665 -18.1333,20.26666 -18.1333,56.5333 v 136.53325 z"
     id="path435" /><path
     d="m 3375.2711,803.20526 q -19.2,0 -35.7333,-4.26666 l -19.7334,19.73332 q 9.0667,4.8 24.5334,8 15.4666,3.2 50.1333,6.39999 52.7999,4.8 76.7999,25.06665 24,20.26666 24,55.99997 0,23.46665 -12.8,44.26664 -12.8,21.33332 -39.4666,34.13331 -26.6667,13.33332 -68.2667,13.33332 -56.5333,0 -91.1999,-21.33331 -34.6667,-20.79999 -34.6667,-62.9333 0,-35.73331 34.6667,-61.86663 -10.6667,-4.79999 -18.6667,-10.13332 -7.4666,-5.33333 -13.3333,-11.2 v -12.26666 l 46.4,-49.06663 q -30.9333,-27.19999 -30.9333,-69.86663 0,-26.66665 12.8,-48.5333 13.3333,-21.86665 37.3333,-34.66665 24,-12.79999 58.1333,-12.79999 22.4,0 41.5999,6.4 h 100.2666 v 41.59997 l -45.3333,3.2 q 10.6667,20.26665 10.6667,44.79997 0,26.66665 -12.8,48.53331 -12.8,21.86665 -37.3333,34.66664 -24,12.79999 -57.0666,12.79999 z m 0,-52.26663 q 20.8,0 34.1333,-11.19999 13.8666,-11.2 13.8666,-31.99998 0,-20.79999 -13.8666,-31.99998 -13.3333,-11.2 -34.1333,-11.2 -21.8667,0 -35.2,11.2 -13.3333,11.19999 -13.3333,31.99998 0,20.79998 13.3333,31.99998 13.3333,11.19999 35.2,11.19999 z m -64,163.73323 q 0,19.73332 18.1333,29.33332 18.6667,10.13333 45.3333,10.13333 25.6,0 41.6,-10.66666 16,-10.13333 16,-27.73332 0,-14.39999 -10.6667,-23.99999 -10.1333,-9.59999 -41.0666,-11.73332 -21.8667,-1.6 -40.5333,-4.8 -15.4667,8.53333 -22.4,18.66666 -6.4,10.13332 -6.4,20.79998 z"
     id="path437" /></g><defs
   id="defs42">







    </defs><sodipodi:namedview
   id="namedview40"
   pagecolor="#ffffff"
   bordercolor="#000000"
   borderopacity="0.25"
   inkscape:showpageshadow="2"
   inkscape:pageopacity="0.0"
   inkscape:pagecheckerboard="0"
   inkscape:deskcolor="#d1d1d1"
   showgrid="false"
   inkscape:zoom="0.44997925"
   inkscape:cx="2901.2449"
   inkscape:cy="1050.0484"
   inkscape:window-width="3840"
   inkscape:window-height="2080"
   inkscape:window-x="-11"
   inkscape:window-y="-11"
   inkscape:window-maximized="1"
   inkscape:current-layer="text367" />
    <g
   id="g346"
   transform="translate(1153.6061,-454.12539)"><path
     d="M 1025.6925,531.04209 856.44652,791.06313 h 168.35428 v 60.42088 H 772.71728 V 797.79647 L 940.60909,537.77126 h -162.1418 v -60.42088 h 247.22521 z"
     style="fill:#ffc52f;fill-rule:nonzero;stroke-width:4.16667"
     id="path2" /><path
     d="m 1112.4592,663.36303 v 12.55418 h 97.8834 V 663.4797 c 0,-27.37502 -16.9458,-48.40837 -49.4208,-48.40837 -31.5876,0 -48.4626,21.03335 -48.4626,48.2917 z m 164.571,93.62924 v 2.99167 c 0,55.73755 -42.7292,98.35008 -114.6459,98.35008 -71.5918,0 -114.3126,-44.6667 -114.3126,-103.27508 V 662.3047 c 0,-58.25422 42.15,-103.26675 112.8501,-103.26675 71.9084,0 113.8042,45.01253 113.8042,103.38341 v 65.38339 h -162.2668 v 26.20002 c 0,27.61252 17.4542,48.29587 49.9251,48.29587 32.1625,0 50.5708,-18.63335 50.5708,-43.13337 v -2.175 z"
     style="fill:#ffc52f;fill-rule:nonzero;stroke-width:4.16667"
     id="path4" /><path
     d="m 1459.772,559.03795 v 62.41671 h -19.2167 c -37.3167,0 -62.55,21.32085 -62.55,59.86672 v 170.16263 h -64.3876 V 565.87962 h 58.7667 v 32.44586 c 15.3709,-24.27919 40.5959,-39.28753 76.6584,-39.28753 z"
     style="fill:#ffc52f;fill-rule:nonzero;stroke-width:4.16667"
     id="path6" /><path
     d="m 1585.5763,615.07133 c -31.9001,0 -49.4126,21.03335 -49.4126,48.2917 v 90.64174 c 0,27.26252 17.5125,48.29587 49.4126,48.29587 31.9042,0 49.4167,-21.03335 49.4167,-48.29587 v -90.64174 c 0,-27.25835 -17.5125,-48.2917 -49.4167,-48.2917 z m 113.8042,47.23337 v 92.75424 c 0,58.26254 -42.1708,103.27508 -113.8042,103.27508 -71.6293,0 -113.8043,-45.01254 -113.8043,-103.27508 V 662.3047 c 0,-58.25422 42.175,-103.26675 113.8043,-103.26675 71.6334,0 113.8042,45.01253 113.8042,103.26675 z"
     style="fill:#ffc52f;fill-rule:nonzero;stroke-width:4.16667"
     id="path8" /></g><path
   d="m 70.64589,197.12932 v 63.64589 h 194.62932 l -0.0958,-194.854324 -63.64172,0.02917 0.0417,86.475064 -95.08758,-95.083405 -45.004201,45.000035 94.787581,94.78757 z"
   style="fill:#ffc52f;fill-rule:nonzero;stroke-width:4.16667"
   id="path10" /><path
   d="M 461.0712,76.491728 C 410.05866,27.166688 342.31694,0 270.31272,0 v 63.645884 c 113.95425,0 206.67099,89.175066 206.67099,198.787656 0,109.61259 -92.71674,198.78766 -206.67099,198.78766 -113.95843,0 -206.671002,-89.17507 -206.671002,-198.78766 H 0 c 0,70.30422 28.250023,136.33761 79.55423,185.94182 51.00837,49.32503 118.75426,76.49172 190.75849,76.49172 72.00422,0 139.74594,-27.16669 190.75848,-76.49172 51.30004,-49.60421 79.55423,-115.6376 79.55423,-185.94182 0,-70.30006 -28.25419,-136.33344 -79.55423,-185.941812 z"
   style="fill:#ffc52f;fill-rule:nonzero;stroke-width:4.16667"
   id="path12" /><g
   transform="matrix(1.0412758,0,0,1.0412758,21.954768,410.00157)"
   id="g34">
            <g
   transform="matrix(506.067,0,0,506.067,687.5,-12.5)"
   id="g16">
                <path
   d="M 0.085,0 H 0.507 V -0.121 H 0.219 V -0.71 H 0.085 Z"
   style="fill:#ffc52f;fill-rule:nonzero"
   id="path14" />
            </g>
            <g
   transform="matrix(506.067,0,0,506.067,933.448,-12.5)"
   id="g20">
                <path
   d="m 0.284,0.013 c 0.049,0 0.091,-0.011 0.126,-0.033 0.035,-0.022 0.061,-0.052 0.079,-0.09 0.018,-0.037 0.027,-0.08 0.027,-0.127 v -0.071 c 0,-0.047 -0.009,-0.09 -0.027,-0.128 C 0.471,-0.473 0.445,-0.503 0.41,-0.525 0.375,-0.547 0.333,-0.558 0.284,-0.558 c -0.049,0 -0.09,0.011 -0.125,0.033 -0.035,0.022 -0.062,0.052 -0.08,0.089 -0.018,0.038 -0.027,0.081 -0.027,0.128 v 0.071 c 0,0.047 0.009,0.09 0.027,0.127 0.018,0.038 0.045,0.068 0.08,0.09 0.035,0.022 0.076,0.033 0.125,0.033 z m 0,-0.113 C 0.215,-0.1 0.18,-0.149 0.18,-0.248 v -0.049 c 0,-0.099 0.035,-0.148 0.104,-0.148 0.069,0 0.104,0.049 0.104,0.148 v 0.049 c 0,0.099 -0.035,0.148 -0.104,0.148 z"
   style="fill:#ffc52f;fill-rule:nonzero"
   id="path18" />
            </g>
            <g
   transform="matrix(506.067,0,0,506.067,1195.59,-12.5)"
   id="g24">
                <path
   d="m 0.278,0.013 c 0.064,0 0.116,-0.017 0.155,-0.051 0.039,-0.033 0.061,-0.078 0.065,-0.134 H 0.37 c -0.006,0.025 -0.016,0.043 -0.031,0.055 -0.015,0.013 -0.035,0.019 -0.061,0.019 -0.035,0 -0.06,-0.013 -0.075,-0.04 C 0.188,-0.165 0.18,-0.2 0.18,-0.243 v -0.059 c 0,-0.043 0.008,-0.078 0.023,-0.105 0.015,-0.027 0.04,-0.04 0.075,-0.04 0.051,0 0.08,0.023 0.089,0.07 H 0.495 C 0.492,-0.432 0.471,-0.476 0.433,-0.509 0.394,-0.542 0.343,-0.558 0.278,-0.558 c -0.047,0 -0.087,0.011 -0.121,0.032 -0.034,0.022 -0.06,0.051 -0.078,0.088 -0.018,0.037 -0.027,0.079 -0.027,0.125 v 0.081 c 0,0.046 0.009,0.087 0.027,0.124 0.018,0.037 0.044,0.067 0.078,0.088 0.034,0.022 0.074,0.033 0.121,0.033 z"
   style="fill:#ffc52f;fill-rule:nonzero"
   id="path22" />
            </g>
            <g
   transform="matrix(506.067,0,0,506.067,1442.55,-12.5)"
   id="g28">
                <path
   d="m 0.274,-0.558 c -0.039,0 -0.074,0.008 -0.105,0.023 -0.031,0.015 -0.056,0.036 -0.074,0.063 -0.019,0.027 -0.029,0.057 -0.031,0.09 h 0.128 c 0.003,-0.02 0.011,-0.036 0.024,-0.047 0.013,-0.011 0.033,-0.016 0.058,-0.016 0.057,0 0.086,0.032 0.086,0.097 v 0.069 C 0.33,-0.307 0.29,-0.321 0.239,-0.321 c -0.04,0 -0.075,0.007 -0.104,0.021 -0.029,0.015 -0.052,0.034 -0.067,0.059 -0.015,0.025 -0.023,0.053 -0.023,0.084 0,0.049 0.016,0.09 0.049,0.122 0.033,0.032 0.078,0.048 0.135,0.048 0.063,0 0.11,-0.02 0.143,-0.06 V 0 H 0.488 V -0.351 C 0.488,-0.391 0.48,-0.427 0.463,-0.458 0.446,-0.489 0.422,-0.514 0.39,-0.532 0.357,-0.549 0.319,-0.558 0.274,-0.558 Z M 0.27,-0.085 c -0.031,0 -0.055,-0.007 -0.072,-0.02 -0.017,-0.013 -0.025,-0.031 -0.025,-0.052 0,-0.021 0.009,-0.039 0.026,-0.052 0.017,-0.013 0.04,-0.019 0.071,-0.019 0.031,0 0.054,0.006 0.071,0.019 0.017,0.013 0.025,0.031 0.025,0.052 0,0.021 -0.008,0.039 -0.024,0.052 -0.017,0.013 -0.041,0.02 -0.072,0.02 z"
   style="fill:#ffc52f;fill-rule:nonzero"
   id="path26" />
            </g>
            <g
   transform="matrix(506.067,0,0,506.067,1684.96,-12.5)"
   id="g32">
                <rect
   x="0.075999998"
   y="-0.74900001"
   width="0.12800001"
   height="0.74900001"
   style="fill:#ffc52f;fill-rule:nonzero"
   id="rect30" />
            </g>
        </g>
</svg>
