 <svg width="208" height="42" viewBox="0 0 208 42" fill="none" xmlns="http://www.w3.org/2000/svg">
            <path d="M0 0.333344H186.667C198.08 0.333344 207.333 9.58668 207.333 21C207.333 32.4133 198.08 41.6667 186.667 41.6667H20.6667C9.25333 41.6667 0 32.4133 0 21V0.333344Z" fill="#AED677" />
            <path d="M61.7933 25.5893C59.3933 25.5893 57.9853 24.2293 57.9853 21.8453H60.1133C60.1133 23.0933 60.6573 23.6853 61.7933 23.6853C62.9133 23.6853 63.4413 22.9653 63.4413 21.8613V13.9733H65.5853V21.9573C65.5853 24.0693 64.1453 25.5893 61.7933 25.5893ZM68.2239 25.3333V13.9733H75.3119V15.8453H70.3679V18.5653H74.2239V20.4373H70.3679V23.4613H75.3119V25.3333H68.2239ZM85.0076 13.9733V15.9093H81.8876V25.3333H79.7596V15.9093H76.6396V13.9733H85.0076ZM94.146 13.9733V15.7653L88.802 23.3973H94.13V25.3333H86.226V23.5413L91.57 15.9093H86.402V13.9733H94.146ZM103.789 13.9733V15.9093H100.669V25.3333H98.5409V15.9093H95.4209V13.9733H103.789ZM112.811 25.5893C109.979 25.5893 108.491 24.0853 108.427 21.9413H110.571C110.635 23.0933 111.419 23.7173 112.763 23.7173C114.011 23.7173 114.747 23.2373 114.747 22.2933C114.747 21.4773 114.171 21.0933 112.987 20.6933L111.499 20.1813C110.043 19.7013 108.731 18.8533 108.731 16.9813C108.731 15.0613 110.331 13.7173 112.619 13.7173C115.131 13.7173 116.571 15.1253 116.651 17.2213H114.507C114.443 16.1813 113.787 15.5893 112.587 15.5893C111.515 15.5893 110.907 16.0373 110.907 16.8213C110.907 17.6853 111.755 18.0533 112.667 18.3573L114.155 18.8533C115.835 19.4293 116.923 20.3573 116.923 22.1493C116.923 24.2933 115.115 25.5893 112.811 25.5893ZM122.86 13.9733C125.452 13.9733 126.892 15.2533 126.892 17.5093C126.892 19.7333 125.452 21.0293 122.86 21.0293H121.18V25.3333H119.036V13.9733H122.86ZM122.86 19.1573C124.06 19.1573 124.716 18.6133 124.716 17.4933C124.716 16.3893 124.06 15.8453 122.86 15.8453H121.18V19.1573H122.86ZM128.818 25.3333V13.9733H135.906V15.8453H130.962V18.5653H134.818V20.4373H130.962V23.4613H135.906V25.3333H128.818ZM144.785 13.9733H146.929V25.3333H145.057L140.305 17.8933V25.3333H138.161V13.9733H140.033L144.785 21.3973V13.9733ZM149.646 25.3333V13.9733H153.294C156.334 13.9733 158.318 15.7493 158.318 18.9013V20.4053C158.318 23.5413 156.334 25.3333 153.294 25.3333H149.646ZM151.79 23.3973H153.31C154.942 23.3973 156.19 22.5173 156.19 20.4053V18.9013C156.19 16.7893 154.942 15.9093 153.31 15.9093H151.79V23.3973ZM160.599 25.3333V13.9733H167.687V15.8453H162.743V18.5653H166.599V20.4373H162.743V23.4613H167.687V25.3333H160.599ZM176.567 13.9733H178.711V25.3333H176.839L172.087 17.8933V25.3333H169.943V13.9733H171.815L176.567 21.3973V13.9733Z" fill="#011633" />
            <mask id="mask0_752_795" style="mask-type:luminance" maskUnits="userSpaceOnUse" x="22" y="11" width="25" height="19">
              <path d="M46.6667 11.5867H22.4534V29.7467H46.6667V11.5867Z" fill="white" />
            </mask>
            <g mask="url(#mask0_752_795)">
              <path d="M35.4733 29.74C37.2533 29.5933 43.58 24.9467 45.62 23.2C47.66 21.4533 46.2 20.8733 45.62 20.4C45.1467 20.02 41.12 22.78 39.6266 23.8267C39.3866 25.0733 38.28 25.96 37.0067 25.92C36.96 25.92 36.9067 25.92 36.8534 25.92C35.2134 25.92 31.3 24.6067 31.1266 24.5467C30.8866 24.46 30.7667 24.2 30.8534 23.9667C30.9334 23.7333 31.1867 23.6133 31.42 23.6867C32.5733 24.08 35.8267 25.0733 36.9534 25.0067C37.7734 25.06 38.52 24.5133 38.7133 23.7067C37.9466 23.1267 31.88 20.8467 30.2067 20.4267C29.1467 20.1667 25.3134 21.4533 22.4534 22.5067C22.76 24.6067 23.52 26.6067 24.68 28.38C25.4933 28.1133 26.3133 27.88 27.1533 27.7C28.1667 27.56 33.6933 29.88 35.4733 29.74Z" fill="#011633" />
              <path d="M40.14 11.5867C39.3133 11.5867 38.5267 11.9134 37.9401 12.4934C36.7134 11.28 34.7401 11.2867 33.5201 12.5134C32.9401 13.1 32.6134 13.8867 32.6134 14.7134C32.6134 17.5534 37.8867 21.1734 37.8867 21.1734V21.1867C37.8867 21.1867 43.2534 17.3467 43.2534 14.7134C43.2534 12.9867 41.8533 11.5934 40.1333 11.5867" fill="#011633" />
            </g>
          </svg>