<?xml version="1.0" encoding="UTF-8" standalone="no"?>
<svg
   id="Ebene_2"
   data-name="Ebene 2"
   viewBox="0 0 96.680004 93.859998"
   version="1.1"
   sodipodi:docname="Logo.svg"
   width="96.68"
   height="93.860001"
   inkscape:version="1.2.2 (b0a8486541, 2022-12-01)"
   xmlns:inkscape="http://www.inkscape.org/namespaces/inkscape"
   xmlns:sodipodi="http://sodipodi.sourceforge.net/DTD/sodipodi-0.dtd"
   xmlns="http://www.w3.org/2000/svg"
   xmlns:svg="http://www.w3.org/2000/svg">
  <sodipodi:namedview
     id="namedview35"
     pagecolor="#ffffff"
     bordercolor="#000000"
     borderopacity="0.25"
     inkscape:showpageshadow="2"
     inkscape:pageopacity="0.0"
     inkscape:pagecheckerboard="0"
     inkscape:deskcolor="#d1d1d1"
     showgrid="false"
     inkscape:zoom="1.4312727"
     inkscape:cx="314.05615"
     inkscape:cy="35.283283"
     inkscape:window-width="1440"
     inkscape:window-height="758"
     inkscape:window-x="-6"
     inkscape:window-y="-6"
     inkscape:window-maximized="1"
     inkscape:current-layer="Ebene_1-2" />
  <defs
     id="defs4">
    <style
       id="style2">
      .cls-1 {
        fill: #fec70e;
      }
    </style>
  </defs>
  <g
     id="Ebene_1-2"
     data-name="Ebene 1">
    <polygon
       class="cls-1"
       points="36.05,11.79 36.05,27.26 19.05,10.25 11,18.3 27.96,35.25 12.64,35.25 12.64,46.64 47.45,46.64 47.43,11.79 "
       id="polygon6" />
    <path
       class="cls-1"
       d="M 82.47,13.68 C 73.34,4.86 61.22,0 48.35,0 v 11.38 c 20.37,0 36.96,15.95 36.96,35.55 0,19.6 -16.59,35.55 -36.96,35.55 -20.37,0 -36.97,-15.94 -36.97,-35.55 H 0 C 0,59.5 5.05,71.31 14.24,80.18 23.35,89 35.47,93.86 48.35,93.86 61.23,93.86 73.34,89 82.46,80.18 91.63,71.31 96.68,59.5 96.68,46.93 96.68,34.36 91.63,22.55 82.46,13.68"
       id="path8" />
  </g>
</svg>
