<svg width="42" height="28" viewBox="0 0 42 28" fill="none" xmlns="http://www.w3.org/2000/svg">
<path d="M0.339996 25.4399V2.81988C0.339996 2.81988 0.380007 2.53988 0.460007 2.06988L13.77 13.4599L0.490005 26.2299C0.410005 25.9799 0.350002 25.7099 0.330002 25.4399H0.339996ZM2.11 0.499883C2.32 0.419883 2.55 0.379883 2.78 0.379883H38.64C38.88 0.379883 39.12 0.419883 39.35 0.499883L26 11.9299L24.23 13.3399L20.73 16.2099L17.23 13.3399L15.46 11.9299L2.11 0.499883ZM2.14999 27.7599L15.54 14.9199L20.73 19.1199L25.92 14.9199L39.31 27.7599C39.1 27.8399 38.87 27.8799 38.64 27.8799H2.78C2.57 27.8799 2.34999 27.8399 2.14999 27.7599ZM27.68 13.4599L40.96 2.06988C41.04 2.30988 41.08 2.55988 41.08 2.81988V25.4399C41.08 25.7099 41.04 25.9699 40.96 26.2299L27.68 13.4699V13.4599Z" fill="white"/>
</svg>
