<svg width="35" height="35" viewBox="0 0 35 35" fill="none" xmlns="http://www.w3.org/2000/svg">
<g clip-path="url(#clip0_1685_957)">
<path d="M17.5 35C7.84 35 0 27.16 0 17.5V0H17.5C27.16 0 35 7.84 35 17.5C35 27.16 27.16 35 17.5 35Z" fill="#FFA700"/>
<mask id="path-2-inside-1_1685_957" fill="white">
<path d="M29.7085 16.6025C29.7085 9.86853 24.2345 4.39453 17.5005 4.39453V6.41053C23.1145 6.41053 27.6925 10.9885 27.6925 16.6025C27.6925 21.6845 23.9545 25.9125 19.0685 26.6685L21.2665 24.3865L19.6145 22.8885L14.9805 27.6905C16.6045 29.3285 18.1165 30.9945 19.6285 32.4645L21.2805 30.9945L19.0685 28.6985C25.0605 27.9285 29.7085 22.8045 29.7085 16.6025Z"/>
</mask>
<path d="M29.7085 16.6025C29.7085 9.86853 24.2345 4.39453 17.5005 4.39453V6.41053C23.1145 6.41053 27.6925 10.9885 27.6925 16.6025C27.6925 21.6845 23.9545 25.9125 19.0685 26.6685L21.2665 24.3865L19.6145 22.8885L14.9805 27.6905C16.6045 29.3285 18.1165 30.9945 19.6285 32.4645L21.2805 30.9945L19.0685 28.6985C25.0605 27.9285 29.7085 22.8045 29.7085 16.6025Z" fill="white"/>
<path d="M17.5005 4.39453V0.394531H13.5005V4.39453H17.5005ZM17.5005 6.41053H13.5005V10.4105H17.5005V6.41053ZM19.0685 26.6685L16.1875 23.8936L7.96073 32.4348L19.6801 30.6215L19.0685 26.6685ZM21.2665 24.3865L24.1474 27.1614L27.0071 24.1924L23.9534 21.4234L21.2665 24.3865ZM19.6145 22.8885L22.3014 19.9254L19.4288 17.3206L16.7361 20.1109L19.6145 22.8885ZM14.9805 27.6905L12.1021 24.9129L9.38521 27.7283L12.1399 30.5068L14.9805 27.6905ZM19.6285 32.4645L16.8402 35.3325L19.5079 37.9261L22.2875 35.4528L19.6285 32.4645ZM21.2805 30.9945L23.9395 33.9828L27.0485 31.2163L24.1611 28.2193L21.2805 30.9945ZM19.0685 28.6985L18.5586 24.7312L10.6687 25.745L16.1878 31.4738L19.0685 28.6985ZM33.7085 16.6025C33.7085 7.65939 26.4436 0.394531 17.5005 0.394531V8.39453C22.0253 8.39453 25.7085 12.0777 25.7085 16.6025H33.7085ZM13.5005 4.39453V6.41053H21.5005V4.39453H13.5005ZM17.5005 10.4105C20.9053 10.4105 23.6925 13.1977 23.6925 16.6025H31.6925C31.6925 8.77939 25.3236 2.41053 17.5005 2.41053V10.4105ZM23.6925 16.6025C23.6925 19.6807 21.4237 22.2565 18.4568 22.7156L19.6801 30.6215C26.4852 29.5685 31.6925 23.6884 31.6925 16.6025H23.6925ZM21.9494 29.4434L24.1474 27.1614L18.3855 21.6116L16.1875 23.8936L21.9494 29.4434ZM23.9534 21.4234L22.3014 19.9254L16.9275 25.8517L18.5795 27.3497L23.9534 21.4234ZM16.7361 20.1109L12.1021 24.9129L17.8588 30.4682L22.4928 25.6662L16.7361 20.1109ZM12.1399 30.5068C13.5291 31.908 15.3599 33.8934 16.8402 35.3325L22.4168 29.5966C20.873 28.0957 19.6798 26.7491 17.821 24.8743L12.1399 30.5068ZM22.2875 35.4528L23.9395 33.9828L18.6214 28.0063L16.9694 29.4763L22.2875 35.4528ZM24.1611 28.2193L21.9491 25.9233L16.1878 31.4738L18.3998 33.7698L24.1611 28.2193ZM19.5783 32.6659C27.5339 31.6436 33.7085 24.8487 33.7085 16.6025H25.7085C25.7085 20.7603 22.5871 24.2135 18.5586 24.7312L19.5783 32.6659Z" fill="white" mask="url(#path-2-inside-1_1685_957)"/>
<mask id="path-4-inside-2_1685_957" fill="white">
<path d="M9.86977 23.3506L8.21777 24.5266C9.00177 25.4506 9.92577 26.2486 10.9338 26.8926L11.8718 25.1006C11.1298 24.5966 10.4578 24.0086 9.86977 23.3506Z"/>
</mask>
<path d="M9.86977 23.3506L8.21777 24.5266C9.00177 25.4506 9.92577 26.2486 10.9338 26.8926L11.8718 25.1006C11.1298 24.5966 10.4578 24.0086 9.86977 23.3506Z" fill="white"/>
<path d="M9.86977 23.3506L12.8524 20.6853L10.4668 18.0156L7.55005 20.0919L9.86977 23.3506ZM8.21777 24.5266L5.89805 21.2679L2.35003 23.7936L5.16774 27.1145L8.21777 24.5266ZM10.9338 26.8926L8.78022 30.2634L12.4552 32.6113L14.4776 28.7476L10.9338 26.8926ZM11.8718 25.1006L15.4156 26.9556L17.0696 23.7957L14.1193 21.7917L11.8718 25.1006ZM7.55005 20.0919L5.89805 21.2679L10.5375 27.7852L12.1895 26.6092L7.55005 20.0919ZM5.16774 27.1145C6.21782 28.3521 7.44656 29.4113 8.78022 30.2634L13.0873 23.5218C12.405 23.0859 11.7857 22.5491 11.2678 21.9387L5.16774 27.1145ZM14.4776 28.7476L15.4156 26.9556L8.32791 23.2456L7.38991 25.0376L14.4776 28.7476ZM14.1193 21.7917C13.6449 21.4695 13.2203 21.097 12.8524 20.6853L6.88715 26.0159C7.69522 26.9202 8.61465 27.7237 9.62424 28.4095L14.1193 21.7917Z" fill="white" mask="url(#path-4-inside-2_1685_957)"/>
<mask id="path-6-inside-3_1685_957" fill="white">
<path d="M7.58794 14.2226C7.79794 13.3546 8.11994 12.5146 8.55394 11.7306L6.87394 10.5826C6.27194 11.6326 5.83794 12.7666 5.58594 13.9566L7.58794 14.2226Z"/>
</mask>
<path d="M7.58794 14.2226C7.79794 13.3546 8.11994 12.5146 8.55394 11.7306L6.87394 10.5826C6.27194 11.6326 5.83794 12.7666 5.58594 13.9566L7.58794 14.2226Z" fill="white"/>
<path d="M7.58794 14.2226L7.0611 18.1877L10.6293 18.6618L11.4758 15.1632L7.58794 14.2226ZM8.55394 11.7306L12.0535 13.6678L13.817 10.4823L10.8107 8.428L8.55394 11.7306ZM6.87394 10.5826L9.1307 7.28L5.5568 4.83784L3.40382 8.59304L6.87394 10.5826ZM5.58594 13.9566L1.67272 13.1279L0.778008 17.3529L5.0591 17.9217L5.58594 13.9566ZM11.4758 15.1632C11.6049 14.6295 11.7997 14.1263 12.0535 13.6678L5.05436 9.79332C4.44016 10.9029 3.99098 12.0797 3.7001 13.282L11.4758 15.1632ZM10.8107 8.428L9.1307 7.28L4.61718 13.8852L6.29718 15.0332L10.8107 8.428ZM3.40382 8.59304C2.59523 10.0034 2.01133 11.5289 1.67272 13.1279L9.49916 14.7853C9.66455 14.0043 9.94865 13.2618 10.3441 12.5721L3.40382 8.59304ZM5.0591 17.9217L7.0611 18.1877L8.11478 10.2574L6.11278 9.99143L5.0591 17.9217Z" fill="white" mask="url(#path-6-inside-3_1685_957)"/>
<mask id="path-8-inside-4_1685_957" fill="white">
<path d="M9.25391 7.60059L10.7379 8.97259C11.4099 8.37059 12.1519 7.88059 12.9499 7.47459L12.2359 5.58459C11.1579 6.10259 10.1499 6.77459 9.25391 7.60059Z"/>
</mask>
<path d="M9.25391 7.60059L10.7379 8.97259C11.4099 8.37059 12.1519 7.88059 12.9499 7.47459L12.2359 5.58459C11.1579 6.10259 10.1499 6.77459 9.25391 7.60059Z" fill="white"/>
<path d="M9.25391 7.60059L6.5427 4.65962L3.35707 7.59637L6.53849 10.5377L9.25391 7.60059ZM10.7379 8.97259L8.02249 11.9097L10.6955 14.3809L13.4069 11.9519L10.7379 8.97259ZM12.9499 7.47459L14.7637 11.0397L17.9586 9.41426L16.6918 6.06099L12.9499 7.47459ZM12.2359 5.58459L15.9778 4.17099L14.4359 0.0896025L10.5035 1.97923L12.2359 5.58459ZM6.53849 10.5377L8.02249 11.9097L13.4533 6.03551L11.9693 4.66351L6.53849 10.5377ZM13.4069 11.9519C13.7886 11.61 14.2344 11.309 14.7637 11.0397L11.1361 3.90948C10.0694 4.45217 9.03121 5.13119 8.06891 5.99325L13.4069 11.9519ZM16.6918 6.06099L15.9778 4.17099L8.49402 6.9982L9.20802 8.8882L16.6918 6.06099ZM10.5035 1.97923C9.08535 2.66066 7.74398 3.55219 6.5427 4.65962L11.9651 10.5416C12.5558 9.997 13.2305 9.54452 13.9684 9.18996L10.5035 1.97923Z" fill="white" mask="url(#path-8-inside-4_1685_957)"/>
<mask id="path-10-inside-5_1685_957" fill="white">
<path d="M8.02166 20.3406C7.69966 19.5286 7.47566 18.6606 7.37766 17.7506L5.34766 17.7646C5.45966 18.9966 5.76766 20.1726 6.21566 21.2646L8.02166 20.3406Z"/>
</mask>
<path d="M8.02166 20.3406C7.69966 19.5286 7.47566 18.6606 7.37766 17.7506L5.34766 17.7646C5.45966 18.9966 5.76766 20.1726 6.21566 21.2646L8.02166 20.3406Z" fill="white"/>
<path d="M8.02166 20.3406L9.84356 23.9016L13.0801 22.2457L11.74 18.8661L8.02166 20.3406ZM7.37766 17.7506L11.3547 17.3223L10.9673 13.7258L7.35007 13.7507L7.37766 17.7506ZM5.34766 17.7646L5.32007 13.7647L0.970261 13.7947L1.36408 18.1268L5.34766 17.7646ZM6.21566 21.2646L2.51498 22.7828L4.16573 26.8065L8.03756 24.8256L6.21566 21.2646ZM11.74 18.8661C11.5439 18.3717 11.412 17.8549 11.3547 17.3223L3.40065 18.1789C3.5393 19.4663 3.8554 20.6855 4.30334 21.8151L11.74 18.8661ZM7.35007 13.7507L5.32007 13.7647L5.37524 21.7645L7.40524 21.7505L7.35007 13.7507ZM1.36408 18.1268C1.51526 19.7897 1.92894 21.3543 2.51498 22.7828L9.91633 19.7464C9.60638 18.9909 9.40405 18.2035 9.33123 17.4025L1.36408 18.1268ZM8.03756 24.8256L9.84356 23.9016L6.19975 16.7796L4.39375 17.7036L8.03756 24.8256Z" fill="white" mask="url(#path-10-inside-5_1685_957)"/>
</g>
<defs>
<clipPath id="clip0_1685_957">
<rect width="35" height="35" fill="white"/>
</clipPath>
</defs>
</svg>
