<svg width="35" height="35" viewBox="0 0 35 35" fill="none" xmlns="http://www.w3.org/2000/svg">
<g clip-path="url(#clip0_1685_922)">
<path d="M17.5 35C7.84 35 0 27.16 0 17.5V0H17.5C27.16 0 35 7.84 35 17.5C35 27.16 27.16 35 17.5 35Z" fill="#9BD300"/>
<path d="M28.7696 14.756H20.1596V6.14599C20.1596 5.79599 19.8796 5.51599 19.5296 5.51599H15.4696C15.1196 5.51599 14.8396 5.79599 14.8396 6.14599V14.756H6.22961C5.87961 14.756 5.59961 15.036 5.59961 15.386V19.46C5.59961 19.81 5.87961 20.09 6.22961 20.09H14.8396V28.7C14.8396 29.05 15.1196 29.33 15.4696 29.33H19.5436C19.8936 29.33 20.1736 29.05 20.1736 28.7V20.09H28.7836C29.1336 20.09 29.4136 19.81 29.4136 19.46V15.386C29.3996 15.036 29.1196 14.756 28.7696 14.756Z" fill="white"/>
</g>
<defs>
<clipPath id="clip0_1685_922">
<rect width="35" height="35" fill="white"/>
</clipPath>
</defs>
</svg>
