<svg width="35" height="35" viewBox="0 0 35 35" fill="none" xmlns="http://www.w3.org/2000/svg">
<g clip-path="url(#clip0_1685_970)">
<path d="M17.5 34.5C8.11614 34.5 0.5 26.8839 0.5 17.5V0.5H17.5C26.8839 0.5 34.5 8.11614 34.5 17.5C34.5 26.8839 26.8839 34.5 17.5 34.5Z" fill="white" stroke="#011633"/>
<path d="M24.8776 11.5913V12.1933C24.8776 15.3293 22.9316 17.4853 19.2216 18.1153V20.6913H14.5036V14.9653H16.6876C18.6336 14.9653 20.0196 13.9573 20.0196 12.3333V11.8713C20.0196 10.2893 18.9696 9.21128 17.1216 9.21128C15.1756 9.21128 14.1536 10.1213 13.9856 11.7313H9.22559C9.42159 7.29328 12.7956 4.82928 17.0656 4.82928C22.2876 4.82928 24.8776 7.62928 24.8776 11.5913ZM14.1116 23.7853H19.5996V29.2733H14.1116V23.7853Z" fill="#333333"/>
</g>
<defs>
<clipPath id="clip0_1685_970">
<rect width="35" height="35" fill="white"/>
</clipPath>
</defs>
</svg>
