<svg xmlns="http://www.w3.org/2000/svg" width="28" height="28" viewBox="0 0 28 28">
    <g fill="none" fill-rule="evenodd">
        <g fill="#011633">
            <g>
                <g>
                    <path d="M15 0c2.334.005 2.851.025 4.066.08 1.437.066 2.418.294 3.277.628.888.345 1.64.807 2.391 1.557.75.75 1.212 1.504 1.557 2.392.334.858.562 1.84.628 3.277.014.315.026.583.036.848l.008.227c.024.724.034 1.518.036 3.258l.001.582v1.884c-.005 2.564-.024 3.073-.081 4.333-.066 1.437-.294 2.418-.628 3.277-.345.888-.806 1.64-1.557 2.391-.75.75-1.503 1.212-2.391 1.557-.859.334-1.84.562-3.277.628-1.26.057-1.77.076-4.333.08L14.15 27h-1.884c-1.74-.003-2.534-.013-3.258-.037l-.227-.008c-.265-.01-.533-.022-.848-.036-1.437-.066-2.419-.294-3.277-.628-.888-.345-1.641-.806-2.392-1.557-.75-.75-1.212-1.503-1.557-2.391-.334-.859-.562-1.84-.627-3.277C.025 17.851.005 17.334 0 15v-3c.003-1.556.013-2.305.035-2.99l.013-.342.032-.734c.065-1.437.293-2.419.627-3.277.345-.888.807-1.641 1.557-2.392.75-.75 1.504-1.212 2.392-1.557.858-.334 1.84-.562 3.277-.627.27-.013.505-.023.734-.032l.341-.013C9.695.014 10.444.004 12 .001zm-1.171 2.432h-1.54c-2.516.004-2.999.022-4.245.079-1.316.06-2.03.28-2.506.464-.63.245-1.08.538-1.553 1.01-.472.473-.765.922-1.01 1.553-.184.475-.404 1.19-.464 2.506-.057 1.246-.075 1.729-.078 4.245v.571l-.001.64V14.71c.004 2.516.022 2.998.079 4.244.06 1.316.28 2.031.464 2.507.245.63.538 1.08 1.01 1.552.473.473.922.765 1.553 1.01.475.185 1.19.405 2.506.465.312.014.576.026.835.036l.223.007c.746.025 1.56.033 3.464.035h1.867c2.76-.002 3.232-.02 4.522-.078 1.316-.06 2.031-.28 2.507-.465.63-.245 1.08-.537 1.552-1.01.473-.472.765-.922 1.01-1.552.185-.476.405-1.19.465-2.507l.031-.723.009-.223c.027-.778.036-1.577.038-3.576v-1.867c-.002-1.903-.01-2.718-.035-3.464l-.007-.223c-.01-.26-.022-.523-.036-.835-.06-1.316-.28-2.03-.465-2.506-.245-.63-.537-1.08-1.01-1.553-.472-.472-.922-.765-1.552-1.01-.476-.184-1.19-.404-2.507-.464-1.246-.057-1.728-.075-4.244-.078h-.572l-.64-.001zm-.33 4.135c3.83 0 6.933 3.104 6.933 6.933 0 3.829-3.103 6.932-6.932 6.932S6.567 17.33 6.567 13.5 9.671 6.567 13.5 6.567zM13.5 9C11.015 9 9 11.014 9 13.5c0 2.485 2.015 4.5 4.5 4.5 2.486 0 4.5-2.015 4.5-4.5 0-2.486-2.014-4.5-4.5-4.5zm7.207-4.327c.895 0 1.62.726 1.62 1.62 0 .895-.725 1.62-1.62 1.62-.894 0-1.62-.725-1.62-1.62 0-.894.726-1.62 1.62-1.62z" transform="translate(-1185 -79) translate(1174 68.023) translate(11.5 11.5)"/>
                </g>
            </g>
        </g>
    </g>
</svg>
