<svg xmlns="http://www.w3.org/2000/svg" width="28" height="28" viewBox="0 0 28 28">
    <g fill="none" fill-rule="evenodd">
        <g fill="#011633">
            <g>
                <g>
                    <path d="M13.584 3.988h.064l.418.002c.807.005 2.376.02 4.059.073l.564.018.567.022c1.984.081 3.926.219 4.793.452 1.162.313 2.077 1.234 2.387 2.403.518 1.943.56 5.82.564 6.453v.177c-.003.632-.046 4.51-.564 6.453-.31 1.17-1.225 2.09-2.387 2.403-1.9.512-8.955.562-10.32.567h-.459c-1.365-.005-8.42-.055-10.32-.567C1.788 22.13.873 21.21.563 20.04.077 18.216.01 14.683 0 13.737v-.15l-.001-.048v-.08-.048l.001-.15c.01-.945.077-4.478.563-6.303.31-1.17 1.225-2.09 2.387-2.403 1.776-.478 8.057-.554 9.983-.565l.418-.002h.064zm-2.846 5.497v8.03l7.057-4.015-7.057-4.015z" transform="translate(-1045 -79) translate(1034 68.023) translate(11.5 11.5)"/>
                </g>
            </g>
        </g>
    </g>
</svg>
