<svg xmlns="http://www.w3.org/2000/svg" width="28" height="28" viewBox="0 0 28 28">
    <g fill="none" fill-rule="evenodd">
        <g fill="#011633">
            <g>
                <g>
                    <path d="M7.684 23H3.327V8.971h4.357V23zM5.505 7.054c-1.395 0-2.527-1.131-2.527-2.527C2.978 3.131 4.11 2 5.505 2c1.396 0 2.527 1.131 2.527 2.527 0 1.396-1.131 2.527-2.527 2.527zM24.022 23h-4.357v-6.818c0-1.634-.027-3.72-2.266-3.72-2.238 0-2.636 1.775-2.636 3.605V23h-4.356V8.971h4.182v1.917h.06c.853-1.459 2.44-2.33 4.128-2.266 4.417 0 5.234 2.909 5.234 6.683L24.02 23z" transform="translate(-1115 -79) translate(1104 68.023) translate(11.5 11.5)"/>
                </g>
            </g>
        </g>
    </g>
</svg>
