<svg width="88" height="40" viewBox="0 0 88 40" fill="none" xmlns="http://www.w3.org/2000/svg">
<path d="M47.7624 24.7235L39.8813 36.8316H47.7209V39.6452H35.9824V37.1452L43.8004 25.0369H36.2502V22.2233H47.7624V24.7235Z" fill="white"/>
<path d="M51.8025 30.8852V31.4698H56.3605V30.8906C56.3605 29.6159 55.5714 28.6364 54.0592 28.6364C52.5883 28.6364 51.8025 29.6159 51.8025 30.8852ZM59.4658 35.2451V35.3844C59.4658 37.9799 57.4761 39.9641 54.1272 39.9641C50.7935 39.9641 48.8042 37.8842 48.8042 35.1551V30.8359C48.8042 28.1232 50.7669 26.0272 54.0592 26.0272C57.4076 26.0272 59.3585 28.1232 59.3585 30.8413V33.8859H51.8025V35.106C51.8025 36.3918 52.6152 37.3549 54.1272 37.3549C55.6249 37.3549 56.4821 36.4872 56.4821 35.3464V35.2451H59.4658Z" fill="white"/>
<path d="M67.9752 26.0272V28.9337H67.0804C65.3427 28.9337 64.1677 29.9265 64.1677 31.7214V39.6452H61.1694V26.3458H63.906V27.8566C64.6217 26.7261 65.7963 26.0272 67.4756 26.0272H67.9752Z" fill="white"/>
<path d="M73.8336 28.6364C72.3481 28.6364 71.5326 29.6159 71.5326 30.8852V35.106C71.5326 36.3755 72.3481 37.3549 73.8336 37.3549C75.3192 37.3549 76.1347 36.3755 76.1347 35.106V30.8852C76.1347 29.6159 75.3192 28.6364 73.8336 28.6364ZM79.1329 30.8359V35.1551C79.1329 37.8681 77.1692 39.9641 73.8336 39.9641C70.4981 39.9641 68.5342 37.8681 68.5342 35.1551V30.8359C68.5342 28.1232 70.4981 26.0272 73.8336 26.0272C77.1692 26.0272 79.1329 28.1232 79.1329 30.8359Z" fill="white"/>
<path d="M3.28975 9.17948V12.1432H12.3528L12.3483 3.06966L9.38482 3.07102L9.38676 7.0978L4.95894 2.67017L2.86328 4.76563L7.27714 9.17948H3.28975Z" fill="white"/>
<path d="M21.4701 3.5619C19.0947 1.26504 15.9403 0 12.5873 0V2.96372C17.8937 2.96372 22.2111 7.11623 22.2111 12.2204C22.2111 17.3246 17.8937 21.4771 12.5873 21.4771C7.28076 21.4771 2.96353 17.3246 2.96353 12.2204H0C0 15.4942 1.31548 18.5691 3.7045 20.8789C6.07975 23.1758 9.23439 24.4408 12.5873 24.4408C15.9403 24.4408 19.0947 23.1758 21.4701 20.8789C23.859 18.5691 25.1746 15.4942 25.1746 12.2204C25.1746 8.94684 23.859 5.87195 21.4701 3.5619Z" fill="white"/>
<path d="M36.4434 18.4859H46.7984V15.5168H39.7315V1.0639H36.4434V18.4859Z" fill="white"/>
<path d="M53.2519 18.8049C54.4543 18.8049 55.4849 18.535 56.3437 17.9952C57.2026 17.4553 57.8405 16.7192 58.2822 15.7867C58.7239 14.8788 58.9448 13.8237 58.9448 12.6704V10.9282C58.9448 9.77492 58.7239 8.71978 58.2822 7.78733C57.8405 6.87942 57.2026 6.14328 56.3437 5.60344C55.4849 5.06361 54.4543 4.79369 53.2519 4.79369C52.0496 4.79369 51.0435 5.06361 50.1847 5.60344C49.3258 6.14328 48.6633 6.87942 48.2216 7.78733C47.7799 8.71978 47.5591 9.77492 47.5591 10.9282V12.6704C47.5591 13.8237 47.7799 14.8788 48.2216 15.7867C48.6633 16.7192 49.3258 17.4553 50.1847 17.9952C51.0435 18.535 52.0496 18.8049 53.2519 18.8049ZM53.2519 16.0321C51.5588 16.0321 50.7 14.8298 50.7 12.4005V11.1981C50.7 8.76886 51.5588 7.56649 53.2519 7.56649C54.945 7.56649 55.8039 8.76886 55.8039 11.1981V12.4005C55.8039 14.8298 54.945 16.0321 53.2519 16.0321Z" fill="white"/>
<path d="M65.8156 18.8049C67.3861 18.8049 68.662 18.3878 69.619 17.5535C70.576 16.7437 71.1158 15.6395 71.214 14.2654H68.0731C67.9259 14.8788 67.6805 15.3205 67.3124 15.615C66.9444 15.934 66.4536 16.0812 65.8156 16.0812C64.9568 16.0812 64.3433 15.7622 63.9753 15.0997C63.6072 14.4372 63.4109 13.5783 63.4109 12.5232V11.0754C63.4109 10.0203 63.6072 9.16147 63.9753 8.49894C64.3433 7.83641 64.9568 7.51741 65.8156 7.51741C67.0671 7.51741 67.7787 8.08179 67.9995 9.23508H71.1404C71.0668 7.88548 70.5515 6.80581 69.619 5.99605C68.662 5.1863 67.4106 4.79369 65.8156 4.79369C64.6623 4.79369 63.6808 5.0636 62.8465 5.5789C62.0122 6.11874 61.3742 6.83035 60.9325 7.73826C60.4909 8.64617 60.27 9.67676 60.27 10.8055V12.7931C60.27 13.9219 60.4909 14.9279 60.9325 15.8358C61.3742 16.7437 62.0122 17.4799 62.8465 17.9952C63.6808 18.535 64.6623 18.8049 65.8156 18.8049Z" fill="white"/>
<path d="M77.692 4.79369C76.735 4.79369 75.8762 4.98999 75.1155 5.35806C74.3548 5.72613 73.7413 6.24143 73.2997 6.90396C72.8334 7.56649 72.5881 8.30263 72.539 9.11239H75.6799C75.7535 8.62163 75.9498 8.22902 76.2688 7.9591C76.5878 7.68918 77.0785 7.56649 77.692 7.56649C79.0906 7.56649 79.8022 8.35171 79.8022 9.94668V11.6398C79.0661 10.9527 78.0846 10.6092 76.8331 10.6092C75.8516 10.6092 74.9928 10.781 74.2812 11.1245C73.5696 11.4926 73.0052 11.9588 72.6371 12.5723C72.2691 13.1857 72.0728 13.8728 72.0728 14.6335C72.0728 15.8358 72.4654 16.8419 73.2751 17.6271C74.0849 18.4123 75.1891 18.8049 76.5878 18.8049C78.1337 18.8049 79.2869 18.3142 80.0967 17.3326V18.4859H82.9431V9.87307C82.9431 8.89155 82.7468 8.00818 82.3297 7.24749C81.9125 6.48681 81.3236 5.87336 80.5384 5.43168C79.7286 5.01453 78.7962 4.79369 77.692 4.79369ZM77.5938 16.4002C76.8331 16.4002 76.2442 16.2284 75.8271 15.9094C75.4099 15.5904 75.2136 15.1488 75.2136 14.6335C75.2136 14.1182 75.4345 13.6765 75.8516 13.3575C76.2688 13.0385 76.8331 12.8913 77.5938 12.8913C78.3545 12.8913 78.9189 13.0385 79.336 13.3575C79.7532 13.6765 79.9495 14.1182 79.9495 14.6335C79.9495 15.1488 79.7532 15.5904 79.3606 15.9094C78.9434 16.2284 78.3545 16.4002 77.5938 16.4002Z" fill="white"/>
<path d="M87.7283 0.106918H84.5874V18.4859H87.7283V0.106918Z" fill="white"/>
</svg>
